<svg width="20" height="20" viewBox="0 0 20 20" fill="none" xmlns="http://www.w3.org/2000/svg">
<path d="M19.456 8.15401C19.579 8.81301 19.646 9.50201 19.646 10.221C19.646 15.845 15.882 19.844 10.197 19.844C8.90418 19.8444 7.62393 19.59 6.42943 19.0955C5.23492 18.6009 4.14957 17.8758 3.23539 16.9616C2.32121 16.0475 1.59612 14.9621 1.10155 13.7676C0.606987 12.5731 0.352634 11.2929 0.353028 10C0.352634 8.70716 0.606987 7.42691 1.10155 6.2324C1.59612 5.0379 2.32121 3.95255 3.23539 3.03837C4.14957 2.12419 5.23492 1.3991 6.42943 0.904533C7.62393 0.409966 8.90418 0.155612 10.197 0.156006C12.855 0.156006 15.076 1.13401 16.78 2.72201L14.005 5.49701V5.49001C12.972 4.50601 11.661 4.00101 10.197 4.00101C6.94903 4.00101 4.30903 6.74501 4.30903 9.99401C4.30903 13.242 6.94903 15.992 10.197 15.992C13.144 15.992 15.15 14.307 15.562 11.993H10.197V8.15401H19.457H19.456Z" fill="white"/>
</svg>
